<svg xmlns="http://www.w3.org/2000/svg" version="1.1" xmlns:xlink="http://www.w3.org/1999/xlink" xmlns:svgjs="http://svgjs.dev/svgjs" width="100%" height="100%" viewBox="0 0 1000 600"><rect width="1000" height="600" x="0" y="0" fill="#48715"/><g><circle r="166.66666666666666" cx="440.1085001627604" cy="462.3306662110433" fill="#fcedda" transform="matrix(0.4571356926071679,0,0,0.4571356926071679,0,88.65214400386043)"/><path d="M402.7109373178043 537.3306911286786L402.7109373178043 537.3306911286786Q398.2922871536108 537.3306911286786 395.8634926924978 534.9311592514345Q393.43469823138486 532.5023647903215 393.43469823138486 527.8496139551773L393.43469823138486 527.8496139551773L393.43469823138486 396.8117633905523Q393.43469823138486 392.18827513927704 395.8634926924978 389.75948067816404Q398.2922871536108 387.33068621705104 402.91577540488606 387.33068621705104L402.91577540488606 387.33068621705104L479.40816963801024 387.33068621705104Q482.97820487000763 387.33068621705104 484.88027282148164 389.23275416852505Q486.78234077295565 391.13482211999906 486.78234077295565 394.5000192649146L486.78234077295565 394.5000192649146Q486.78234077295565 398.070054496912 484.88027282148164 399.972122448386Q482.97820487000763 401.87419039986 479.40816963801024 401.87419039986L479.40816963801024 401.87419039986L410.72888529786394 401.87419039986L410.72888529786394 453.6982264315597L474.98951947381676 453.6982264315597Q478.55955470581415 453.6982264315597 480.5786729927635 455.6002943830337Q482.568528695844 457.5023623345077 482.568528695844 460.8675594794233L482.568528695844 460.8675594794233Q482.568528695844 464.4375947114207 480.5786729927635 466.3396626628947Q478.55955470581415 468.2417306143687 474.98951947381676 468.2417306143687L474.98951947381676 468.2417306143687L410.72888529786394 468.2417306143687L410.72888529786394 527.8496139551773Q410.72888529786394 537.3306911286786 402.7109373178043 537.3306911286786Z " fill="#ee4e34" transform="matrix(0.4571356926071679,0,0,0.4571356926071679,0,88.65214400386043)"/><path d="M699.2686035243909 536.8972442215706L699.2686035243909 536.8972442215706Q694.9052823788353 536.8972442215706 692.506900557106 534.5277585663682Q690.1085187353768 532.1293767446391 690.1085187353768 527.5348862668686L690.1085187353768 527.5348862668686L690.1085187353768 398.13785255959795Q690.1085187353768 393.5722582483544 692.506900557106 391.17387642662516Q694.9052823788353 388.7754946048959 699.4708766900789 388.7754946048959L699.4708766900789 388.7754946048959L775.0054559912859 388.7754946048959Q778.5307883075626 388.7754946048959 780.4090391318085 390.6537454291417Q782.2872899560542 392.53199625338743 782.2872899560542 395.85505540397617L782.2872899560542 395.85505540397617Q782.2872899560542 399.3803877202528 780.4090391318085 401.25863854449864Q778.5307883075626 403.1368893687444 775.0054559912859 403.1368893687444L775.0054559912859 403.1368893687444L707.18615315275 403.1368893687444L707.18615315275 454.3120002878101L770.6421348457304 454.3120002878101Q774.167467162007 454.3120002878101 776.1613026523603 456.1902511120559Q778.1262419761866 458.0685019363017 778.1262419761866 461.39156108689036L778.1262419761866 461.39156108689036Q778.1262419761866 464.916893403167 776.1613026523603 466.79514422741283Q774.167467162007 468.67339505165864 770.6421348457304 468.67339505165864L770.6421348457304 468.67339505165864L707.18615315275 468.67339505165864L707.18615315275 527.5348862668686Q707.18615315275 536.8972442215706 699.2686035243909 536.8972442215706ZM839.9062460106094 537.3306867194735L839.9062460106094 537.3306867194735Q825.1403049153847 537.3306867194735 814.3331386343399 530.8868415839842Q803.4970761867681 524.4141002819679 797.5733620487621 512.6822566720635Q791.6496479107562 500.9215168956323 791.6496479107562 484.884144473226L791.6496479107562 484.884144473226Q791.6496479107562 472.8344430315262 794.972707061345 463.1542272450287Q798.2957662119337 453.4740114585312 804.7685075139499 446.62561999166587Q811.2123526494391 439.7483323582736 820.0545796066577 436.1074153758895Q828.8968065638763 432.4664983935054 839.9062460106094 432.4664983935054L839.9062460106094 432.4664983935054Q854.7010832723607 432.4664983935054 865.5082495534056 438.91034352899476Q876.3154158344506 445.3541886644841 882.2680261389834 457.1149284409154Q888.1917402769892 468.87566821734663 888.1917402769892 484.884144473226L888.1917402769892 484.884144473226Q888.1917402769892 496.9627420814527 884.8686811264005 506.52737320184275Q881.516725809285 516.0920043222328 875.0728806737956 523.0848766217325Q868.6290355383063 530.0488527547052 859.7868085810877 533.6897697370894Q850.9445816238691 537.3306867194735 839.9062460106094 537.3306867194735ZM839.9062460106094 523.8072807849039L839.9062460106094 523.8072807849039Q849.2686039653114 523.8072807849039 856.3481647643915 519.2127903071334Q863.4277255634719 514.6471959958899 867.270915711544 505.92055370477874Q871.1141058596162 497.16501524714073 871.1141058596162 484.884144473226L871.1141058596162 484.884144473226Q871.1141058596162 465.957155398134 862.7053214003005 455.9879779463679Q854.2676407744578 445.989904328075 839.9062460106094 445.989904328075L839.9062460106094 445.989904328075Q830.3416148902194 445.989904328075 823.3776387572465 450.468810139738Q816.4136626242736 454.947715951401 812.5704724762016 463.55877357640475Q808.6983861616026 472.1987273679353 808.6983861616026 484.884144473226L808.6983861616026 484.884144473226Q808.6983861616026 503.6088603826301 817.2516514535527 513.7225186670305Q825.7760205789758 523.8072807849039 839.9062460106094 523.8072807849039ZM922.0869436129939 536.8972442215706L922.0869436129939 536.8972442215706Q917.9258956331263 536.8972442215706 915.7586831436118 534.6144470659489Q913.5625744875707 532.3316499103271 913.5625744875707 528.1706019304595L913.5625744875707 528.1706019304595L913.5625744875707 441.4243100168314Q913.5625744875707 437.26326203696385 915.6430984775044 435.0671533809226Q917.7236224674383 432.8710447248814 921.6823972816179 432.8710447248814L921.6823972816179 432.8710447248814Q925.6411720957973 432.8710447248814 927.8083845853117 435.0671533809226Q930.0044932413529 437.26326203696385 930.0044932413529 441.4243100168314L930.0044932413529 441.4243100168314L930.0044932413529 458.27077510198967L927.9239692514192 458.27077510198967Q931.2470284020079 445.989904328075 940.6093863567099 439.34378602689765Q949.971744311412 432.6687715591934 963.6974234116695 432.2642252278174L963.6974234116695 432.2642252278174Q966.8182093965703 432.06195206212936 968.696460220816 433.6223450545797Q970.5747110450617 435.18273804703006 970.7769842107497 438.91034352899476L970.7769842107497 438.91034352899476Q970.9792573764377 442.4645720117983 969.1299027187189 444.5450960017321Q967.2516518944732 446.62561999166587 963.2928770802936 447.0301663230419L963.2928770802936 447.0301663230419L959.9698179297048 447.4347126544179Q945.8106963315444 448.70614398159967 938.2110045349806 456.5081089438513Q930.6402089049437 464.31007390610307 930.6402089049437 477.8334798406726L930.6402089049437 477.8334798406726L930.6402089049437 528.1706019304595Q930.6402089049437 532.3316499103271 928.4441002489026 534.6144470659489Q926.2479915928615 536.8972442215706 922.0869436129939 536.8972442215706ZM1032.3547150794843 537.3306867194735L1032.3547150794843 537.3306867194735Q1016.346238823605 537.3306867194735 1004.7877722128618 530.9735300835647Q993.2582017686453 524.6452696141828 986.9010451327366 512.9712183373322Q980.5727846633546 501.32606322700826 980.5727846633546 485.1153138054409L980.5727846633546 485.1153138054409Q980.5727846633546 469.28021454872265 986.8143566331561 457.54837093881827Q993.0559286029574 445.78763116238696 1003.9786795501096 439.11261669468274Q1014.9014304972621 432.4664983935054 1029.2339290945838 432.4664983935054L1029.2339290945838 432.4664983935054Q1039.4342758785647 432.4664983935054 1047.5540986726119 435.9051422102015Q1055.673921466659 439.34378602689765 1061.395362438977 445.78763116238696Q1067.1168034112948 452.2314762978763 1070.122004730088 461.39156108689036Q1073.1561022154083 470.5516458759044 1073.1561022154083 481.9945278205402L1073.1561022154083 481.9945278205402Q1073.1561022154083 485.3175869711289 1071.2778513911621 486.87797996357926Q1069.3996005669164 488.4383729560296 1065.87426825064 488.4383729560296L1065.87426825064 488.4383729560296L993.4604749343333 488.4383729560296L993.4604749343333 477.4000373427698L1061.91549343646 477.4000373427698L1058.5924342858716 480.11627699629446Q1058.5924342858716 468.87566821734663 1055.2404789687562 461.0737032550949Q1051.9174198181672 453.2717382928432 1045.5891593487854 449.11069031297563Q1039.2320027128767 444.9496423331081 1029.6673715924867 444.9496423331081L1029.6673715924867 444.9496423331081Q1019.0624784771297 444.9496423331081 1011.6650598462539 449.8330944761471Q1004.2676412153784 454.71654661918615 1000.5400357334137 463.3565004107167Q996.783534084922 471.99645420224726 996.783534084922 483.4393361468831L996.783534084922 483.4393361468831L996.783534084922 484.681871307538Q996.783534084922 503.84002971484495 1006.0592035400435 513.809207166611Q1015.3059768286381 523.8072807849039 1032.3547150794843 523.8072807849039L1032.3547150794843 523.8072807849039Q1039.4342758785647 523.8072807849039 1046.3982520115374 521.9290299606581Q1053.391124311037 520.0507791364123 1060.0372426122144 515.6874579908567L1060.0372426122144 515.6874579908567Q1062.955755431427 513.809207166611 1065.3541372531563 513.9247918327185Q1067.7236229083587 514.011480332299 1069.1973274012284 515.3696001590613Q1070.6421357275713 516.7277199858237 1071.162266725055 518.69265930965Q1071.6823977225386 520.6864948000032 1070.757720393679 522.9692919556251Q1069.8041468982924 525.2520891112468 1067.1168034112948 526.9280667698046L1067.1168034112948 526.9280667698046Q1060.2395157779024 531.927103578951 1050.8771578232004 534.6144470659489Q1041.5147998684984 537.3306867194735 1032.3547150794843 537.3306867194735ZM1131.613047099242 537.3306867194735L1131.613047099242 537.3306867194735Q1122.25068914454 537.3306867194735 1112.7727465237308 535.0478895638518Q1103.323700069448 532.736196241703 1095.2038772754008 527.1303399354927L1095.2038772754008 527.1303399354927Q1093.1233532854671 525.6855316091496 1092.2853644561883 523.6916961187965Q1091.4473756269094 521.7267567949701 1091.7652334587046 519.7329213046169Q1092.0830912905003 517.7679819807905 1093.4412111172624 516.3231736544476Q1094.770434777498 514.8494691615779 1096.7642702678513 514.5316113297824Q1098.7292095916773 514.2426496645139 1101.2431760795143 515.4851848251687L1101.2431760795143 515.4851848251687Q1109.3341027070346 520.4842216343152 1116.9337945035982 522.4491609581416Q1124.5334863001617 524.4141002819679 1132.017593430618 524.4141002819679L1132.017593430618 524.4141002819679Q1143.8939178731566 524.4141002819679 1149.9043205107432 520.0507791364123Q1155.9436193148567 515.6874579908567 1155.9436193148567 508.2033508604005L1155.9436193148567 508.2033508604005Q1155.9436193148567 502.3663252219752 1151.984844500677 498.9276814052791Q1148.0549658530244 495.5179337551098 1139.5017005610744 493.639682930864L1139.5017005610744 493.639682930864L1120.5747114859823 489.4786349509965Q1107.4847480493154 486.7623952974718 1101.1275914134067 480.11627699629446Q1094.770434777498 473.4412625285902 1094.770434777498 462.8363694132333L1094.770434777498 462.8363694132333Q1094.770434777498 453.4740114585312 1099.6827830870639 446.71230849124646Q1104.5662352301028 439.95060552396166 1113.495150686902 436.22300004199695Q1122.452962310228 432.4664983935054 1134.3003905862397 432.4664983935054L1134.3003905862397 432.4664983935054Q1143.4604753752537 432.4664983935054 1151.6958828354086 434.8648802152346Q1159.902394129036 437.26326203696385 1166.5485124302136 442.4645720117983L1166.5485124302136 442.4645720117983Q1168.6290364201473 443.9093803381412 1169.3803367498458 445.87431966196755Q1170.102740913017 447.86815515232075 1169.5826099155338 449.8330944761471Q1169.0624789180501 451.8269299665003 1167.5887744251804 453.1561536267358Q1166.1439660988376 454.5142734534981 1164.063442108904 454.71654661918615Q1161.9829181189698 454.947715951401 1159.7001209633481 453.4740114585312L1159.7001209633481 453.4740114585312Q1153.4585489935466 449.3129634786637 1147.0147038580576 447.34802415483733Q1140.5419625560412 445.3541886644841 1134.3003905862397 445.3541886644841L1134.3003905862397 445.3541886644841Q1122.655235475916 445.3541886644841 1116.615936671803 449.94867914225455Q1110.6055340342164 454.5142734534981 1110.6055340342164 461.9983805839544L1110.6055340342164 461.9983805839544Q1110.6055340342164 467.83540622237973 1114.3331395161808 471.5919078708713Q1118.0896411646727 475.319513352836 1125.9782946265045 476.99549101139377L1125.9782946265045 476.99549101139377L1144.9341798681235 480.9542658255733Q1158.4575858026933 483.84388247825916 1165.219288769978 490.20103911416794Q1171.9809917372631 496.5581957500767 1171.9809917372631 507.36536203112166L1171.9809917372631 507.36536203112166Q1171.9809917372631 521.0910411313793 1160.942656124003 529.2108639254263Q1149.9043205107432 537.3306867194735 1131.613047099242 537.3306867194735ZM1237.0840549222744 537.3306867194735L1237.0840549222744 537.3306867194735Q1225.2366266462623 537.3306867194735 1217.2323885183228 533.0540540734985Q1209.1992542238563 528.8063175940504 1205.2693755762034 520.5709101338958Q1201.3106007620236 512.3643988402681 1201.3106007620236 500.4880743977294L1201.3106007620236 500.4880743977294L1201.3106007620236 447.4347126544179L1187.3537523295513 447.4347126544179Q1183.8284200132748 447.4347126544179 1181.950169189029 445.67204649627956Q1180.071918364783 443.9093803381412 1180.071918364783 440.7885943532405L1180.071918364783 440.7885943532405Q1180.071918364783 437.6678083683398 1181.950169189029 435.99183070978205Q1183.8284200132748 434.34474921775114 1187.3537523295513 434.34474921775114L1187.3537523295513 434.34474921775114L1201.3106007620236 434.34474921775114L1201.3106007620236 410.4187233335126Q1201.3106007620236 406.2576753536451 1203.5933979176457 404.0615666976039Q1205.8761950732674 401.8943542080895 1209.8349698874472 401.8943542080895L1209.8349698874472 401.8943542080895Q1213.7937447016266 401.8943542080895 1215.960957191141 404.0615666976039Q1218.157065847182 406.2576753536451 1218.157065847182 410.4187233335126L1218.157065847182 410.4187233335126L1218.157065847182 434.34474921775114L1244.3658888870423 434.34474921775114Q1247.9201173698461 434.34474921775114 1249.769472027565 435.99183070978205Q1251.6477228518106 437.6678083683398 1251.6477228518106 440.7885943532405L1251.6477228518106 440.7885943532405Q1251.6477228518106 443.9093803381412 1249.769472027565 445.67204649627956Q1247.9201173698461 447.4347126544179 1244.3658888870423 447.4347126544179L1244.3658888870423 447.4347126544179L1218.157065847182 447.4347126544179L1218.157065847182 498.8409929056985Q1218.157065847182 510.68842118171034 1223.1561026563286 516.8433046519311Q1228.1551394654753 522.9692919556251 1239.366852077896 522.9692919556251L1239.366852077896 522.9692919556251Q1243.3256268920754 522.9692919556251 1246.1285550451807 522.1313031263461Q1248.960379364813 521.2933142970672 1250.8097340225318 521.2933142970672L1250.8097340225318 521.2933142970672Q1252.6879848467775 521.0910411313793 1253.9305200074323 522.564745624249Q1255.201951334614 524.0095539505919 1255.201951334614 527.5348862668686L1255.201951334614 527.5348862668686Q1255.201951334614 530.0488527547052 1254.248377839228 532.1293767446391Q1253.3237005103683 534.2099007345728 1251.0409033547467 535.0478895638518L1251.0409033547467 535.0478895638518Q1248.52693686691 535.8569822266038 1244.48147355315 536.6082825563021Q1240.407114072863 537.3306867194735 1237.0840549222744 537.3306867194735ZM1268.494187936969 536.8972442215706L1268.494187936969 536.8972442215706Q1265.1711287863805 536.8972442215706 1263.206189462554 535.3368512291203Q1261.2123539722006 533.7764582366699 1260.9233923069323 531.1758032492528Q1260.6055344751367 528.5751482618355 1262.0503428014795 525.2520891112468L1262.0503428014795 525.2520891112468L1319.264752524659 395.01706657469725Q1321.1430033489046 390.8560185948297 1323.7436583363215 389.09335243669136Q1326.3443133237388 387.330686278553 1329.4650993086398 387.330686278553L1329.4650993086398 387.330686278553Q1332.5858852935403 387.330686278553 1335.1865402809576 389.09335243669136Q1337.787195268375 390.8560185948297 1339.4631729269327 395.01706657469725L1339.4631729269327 395.01706657469725L1396.8798558157996 525.2520891112468Q1398.5269373078304 528.5751482618355 1398.237975642562 531.2913879153601Q1397.9201178107664 534.0076275688848 1396.0418669865207 535.4524358952277Q1394.163616162275 536.8972442215706 1390.840557011686 536.8972442215706L1390.840557011686 536.8972442215706Q1387.0840553631947 536.8972442215706 1384.801258207573 534.9323048977443Q1382.518461051951 532.967365573918 1381.073652725608 529.2108639254263L1381.073652725608 529.2108639254263L1365.671995966793 493.639682930864L1373.9940919265282 498.00300407641964L1284.5315603593754 498.00300407641964L1293.0559294847985 493.639682930864L1277.856545891671 529.2108639254263Q1276.0071912339522 533.169638739606 1273.9266672440185 535.0478895638518Q1271.8461432540844 536.8972442215706 1268.494187936969 536.8972442215706ZM1329.6673724743277 408.7427456749549L1329.2628261429518 408.7427456749549L1295.772169138323 487.60038412675067L1290.7731323291764 483.6416093125711L1367.7525199567267 483.6416093125711L1363.1580294789565 487.60038412675067L1329.6673724743277 408.7427456749549ZM1459.0933023481252 537.3306867194735L1459.0933023481252 537.3306867194735Q1447.2169779055866 537.3306867194735 1439.2127397776467 533.0540540734985Q1431.2085016497072 528.8063175940504 1427.2497268355278 520.5709101338958Q1423.290952021348 512.3643988402681 1423.290952021348 500.4880743977294L1423.290952021348 500.4880743977294L1423.290952021348 447.4347126544179L1409.3629997554021 447.4347126544179Q1405.8087712725987 447.4347126544179 1403.95941661488 445.67204649627956Q1402.0811657906343 443.9093803381412 1402.0811657906343 440.7885943532405L1402.0811657906343 440.7885943532405Q1402.0811657906343 437.6678083683398 1403.95941661488 435.99183070978205Q1405.8087712725987 434.34474921775114 1409.3629997554021 434.34474921775114L1409.3629997554021 434.34474921775114L1423.290952021348 434.34474921775114L1423.290952021348 410.4187233335126Q1423.290952021348 406.2576753536451 1425.5737491769696 404.0615666976039Q1427.8854424991182 401.8943542080895 1431.815321146771 401.8943542080895L1431.815321146771 401.8943542080895Q1435.7740959609505 401.8943542080895 1437.9702046169919 404.0615666976039Q1440.1374171065063 406.2576753536451 1440.1374171065063 410.4187233335126L1440.1374171065063 410.4187233335126L1440.1374171065063 434.34474921775114L1466.3751363128931 434.34474921775114Q1469.90046862917 434.34474921775114 1471.7787194534158 435.99183070978205Q1473.656970277662 437.6678083683398 1473.656970277662 440.7885943532405L1473.656970277662 440.7885943532405Q1473.656970277662 443.9093803381412 1471.7787194534158 445.67204649627956Q1469.90046862917 447.4347126544179 1466.3751363128931 447.4347126544179L1466.3751363128931 447.4347126544179L1440.1374171065063 447.4347126544179L1440.1374171065063 498.8409929056985Q1440.1374171065063 510.68842118171034 1445.136453915653 516.8433046519311Q1450.1354907247992 522.9692919556251 1461.376099503747 522.9692919556251L1461.376099503747 522.9692919556251Q1465.3348743179267 522.9692919556251 1468.1378024710316 522.1313031263461Q1470.940730624137 521.2933142970672 1472.8189814483826 521.2933142970672L1472.8189814483826 521.2933142970672Q1474.6972322726283 521.0910411313793 1475.9397674332836 522.564745624249Q1477.1823025939384 524.0095539505919 1477.1823025939384 527.5348862668686L1477.1823025939384 527.5348862668686Q1477.1823025939384 530.0488527547052 1476.2576252650788 532.1293767446391Q1475.3040517696927 534.2099007345728 1473.0212546140706 535.0478895638518L1473.0212546140706 535.0478895638518Q1470.536184292761 535.8569822266038 1466.4618248124739 536.6082825563021Q1462.4163614987137 537.3306867194735 1459.0933023481252 537.3306867194735ZM1502.1485904731435 536.8972442215706L1502.1485904731435 536.8972442215706Q1497.9875424932761 536.8972442215706 1495.7914338372348 534.5277585663682Q1493.6242213477208 532.1293767446391 1493.6242213477208 527.9683287647715L1493.6242213477208 527.9683287647715L1493.6242213477208 396.25960173535213Q1493.6242213477208 391.89628058979656 1495.7914338372348 389.6134834341748Q1497.9875424932761 387.330686278553 1502.1485904731435 387.330686278553L1502.1485904731435 387.330686278553Q1506.3096384530113 387.330686278553 1508.5057471090527 389.6134834341748Q1510.672959598567 391.89628058979656 1510.672959598567 396.25960173535213L1510.672959598567 396.25960173535213L1510.672959598567 453.67628462421925L1598.6906828393767 453.67628462421925L1598.6906828393767 396.25960173535213Q1598.6906828393767 391.89628058979656 1600.8578953288911 389.6134834341748Q1603.0540039849325 387.330686278553 1607.2150519647998 387.330686278553L1607.2150519647998 387.330686278553Q1611.3760999446672 387.330686278553 1613.5722086007086 389.6134834341748Q1615.739421090223 391.89628058979656 1615.739421090223 396.25960173535213L1615.739421090223 396.25960173535213L1615.739421090223 527.9683287647715Q1615.739421090223 532.1293767446391 1613.5722086007086 534.5277585663682Q1611.3760999446672 536.8972442215706 1607.2150519647998 536.8972442215706L1607.2150519647998 536.8972442215706Q1603.0540039849325 536.8972442215706 1600.8578953288911 534.5277585663682Q1598.6906828393767 532.1293767446391 1598.6906828393767 527.9683287647715L1598.6906828393767 527.9683287647715L1598.6906828393767 468.4711218859706L1510.672959598567 468.4711218859706L1510.672959598567 527.9683287647715Q1510.672959598567 532.1293767446391 1508.592435608633 534.5277585663682Q1506.5119116186993 536.8972442215706 1502.1485904731435 536.8972442215706ZM1658.3901628838657 536.8972442215706L1658.3901628838657 536.8972442215706Q1654.229114903998 536.8972442215706 1652.1485909140642 534.6144470659489Q1650.0680669241306 532.3316499103271 1650.0680669241306 528.1706019304595L1650.0680669241306 528.1706019304595L1650.0680669241306 441.4243100168314Q1650.0680669241306 437.26326203696385 1652.1485909140642 435.0671533809226Q1654.229114903998 432.8710447248814 1658.1878897181778 432.8710447248814L1658.1878897181778 432.8710447248814Q1662.1466645323571 432.8710447248814 1664.3138770218716 435.0671533809226Q1666.509985677913 437.26326203696385 1666.509985677913 441.4243100168314L1666.509985677913 441.4243100168314L1666.509985677913 459.7155834283326L1664.2271885222908 456.79707060911994Q1668.1859633364706 445.1519154987961 1677.028190293689 438.82365502941417Q1685.8704172509078 432.4664983935054 1698.1223918582955 432.4664983935054L1698.1223918582955 432.4664983935054Q1711.038978295801 432.4664983935054 1719.0432164237404 438.5924856971993Q1727.0474545516804 444.74736916742006 1729.763694205205 457.6350594383988L1729.763694205205 457.6350594383988L1726.6429082203044 457.6350594383988Q1730.3705137022694 445.989904328075 1740.0507294887666 439.2282013607902Q1749.7309452752638 432.4664983935054 1762.6186355462428 432.4664983935054L1762.6186355462428 432.4664983935054Q1774.0615174908785 432.4664983935054 1781.4589361217545 436.82981953906096Q1788.85635475263 441.19314068461654 1792.5839602345945 450.03536764183514Q1796.340461883086 458.87759459905374 1796.340461883086 472.40100053362335L1796.340461883086 472.40100053362335L1796.340461883086 528.1706019304595Q1796.340461883086 532.3316499103271 1794.144353227045 534.6144470659489Q1791.9771407375306 536.8972442215706 1787.8160927576632 536.8972442215706L1787.8160927576632 536.8972442215706Q1783.8573179434834 536.8972442215706 1781.6612092874425 534.6144470659489Q1779.493996797928 532.3316499103271 1779.493996797928 528.1706019304595L1779.493996797928 528.1706019304595L1779.493996797928 473.2389893629022Q1779.493996797928 459.31103709695657 1774.6972331544694 452.7516072953598Q1769.9004695110111 446.192177493763 1758.4575875663754 446.192177493763L1758.4575875663754 446.192177493763Q1745.9744436267724 446.192177493763 1738.8081943281118 454.8321312852936Q1731.641945029451 463.47208507682416 1731.641945029451 478.23802617204865L1731.641945029451 478.23802617204865L1731.641945029451 528.1706019304595Q1731.641945029451 532.3316499103271 1729.4458363734097 534.6144470659489Q1727.2497277173684 536.8972442215706 1723.088679737501 536.8972442215706L1723.088679737501 536.8972442215706Q1719.158801089848 536.8972442215706 1716.9626924338068 534.6144470659489Q1714.7665837777658 532.3316499103271 1714.7665837777658 528.1706019304595L1714.7665837777658 528.1706019304595L1714.7665837777658 473.2389893629022Q1714.7665837777658 459.31103709695657 1709.8831316347269 452.7516072953598Q1704.9996794916879 446.192177493763 1693.7590707127397 446.192177493763L1693.7590707127397 446.192177493763Q1681.2759267731371 446.192177493763 1674.1096774744765 454.8321312852936Q1666.914532009289 463.47208507682416 1666.914532009289 478.23802617204865L1666.914532009289 478.23802617204865L1666.914532009289 528.1706019304595Q1666.914532009289 536.8972442215706 1658.3901628838657 536.8972442215706ZM1873.3198495106362 537.3306867194735L1873.3198495106362 537.3306867194735Q1857.2824770882298 537.3306867194735 1845.7529066440134 530.9735300835647Q1834.1944400332704 524.6452696141828 1827.8661795638882 512.9712183373322Q1821.50902292798 501.32606322700826 1821.50902292798 485.1153138054409L1821.50902292798 485.1153138054409Q1821.50902292798 469.28021454872265 1827.750594897781 457.54837093881827Q1833.9921668675825 445.78763116238696 1844.9149178147345 439.11261669468274Q1855.837668761887 432.4664983935054 1870.1990635257357 432.4664983935054L1870.1990635257357 432.4664983935054Q1880.3994103097166 432.4664983935054 1888.4903369372369 435.9051422102015Q1896.610159731284 439.34378602689765 1902.331600703602 445.78763116238696Q1908.0530416759198 452.2314762978763 1911.08713916124 461.39156108689036Q1914.0923404800328 470.5516458759044 1914.0923404800328 481.9945278205402L1914.0923404800328 481.9945278205402Q1914.0923404800328 485.3175869711289 1912.2140896557871 486.87797996357926Q1910.3358388315419 488.4383729560296 1906.810506515265 488.4383729560296L1906.810506515265 488.4383729560296L1834.3967131989584 488.4383729560296L1834.3967131989584 477.4000373427698L1902.851731701085 477.4000373427698L1899.5286725504966 480.11627699629446Q1899.5286725504966 468.87566821734663 1896.205613399908 461.0737032550949Q1892.8825542493191 453.2717382928432 1886.5253976134104 449.11069031297563Q1880.1682409775017 444.9496423331081 1870.6036098571117 444.9496423331081L1870.6036098571117 444.9496423331081Q1859.9987167417548 444.9496423331081 1852.6012981108793 449.8330944761471Q1845.2327756465302 454.71654661918615 1841.4762739980388 463.3565004107167Q1837.7486685160738 471.99645420224726 1837.7486685160738 483.4393361468831L1837.7486685160738 483.4393361468831L1837.7486685160738 484.681871307538Q1837.7486685160738 503.84002971484495 1846.9954418046686 513.809207166611Q1856.242215093263 523.8072807849039 1873.3198495106362 523.8072807849039L1873.3198495106362 523.8072807849039Q1880.3994103097166 523.8072807849039 1887.3633864426893 521.9290299606581Q1894.327362575662 520.0507791364123 1900.9734808768394 515.6874579908567L1900.9734808768394 515.6874579908567Q1903.891993696052 513.809207166611 1906.2903755177813 513.9247918327185Q1908.6887573395106 514.011480332299 1910.1335656658534 515.3696001590613Q1911.6072701587232 516.7277199858237 1912.1274011562068 518.69265930965Q1912.64753215369 520.6864948000032 1911.693958658304 522.9692919556251Q1910.7692813294443 525.2520891112468 1908.0530416759198 526.9280667698046L1908.0530416759198 526.9280667698046Q1901.2046502090543 531.927103578951 1891.8422922543523 534.6144470659489Q1882.4799342996503 537.3306867194735 1873.3198495106362 537.3306867194735Z " fill="#fcedda" transform="matrix(0.4571356926071679,0,0,0.4571356926071679,0,88.65214400386043)"/></g></svg>